<svg id="4ca1156f-91fe-4332-9507-12b55b152c12" data-name="Pagina inicial Escritorio" xmlns="http://www.w3.org/2000/svg" viewBox="0 0 226.6 60.4">
  <title>logo</title>
  <g>
    <text transform="translate(60.5 41.6)" style="font-size: 31.513559341430664px;fill: #0095e5;font-family: Hobo Std">Master</text>
    <path d="M320.7,640.9a30.4,30.4,0,1,1-31.2-51.6,30.9,30.9,0,0,0,7.3,60.3,31.5,31.5,0,0,0,23.9-8.7" transform="translate(-267.7 -589.2)" style="fill: #0095e5"/>
    <path d="M309.8,636.1c4-2.6-1.3-18.4-7.5-20.2s-20,10.5-17.4,14.8,9.5,2.9,13.1,3.2S303.7,640.1,309.8,636.1Z" transform="translate(-267.7 -589.2)" style="fill: #0095e5"/>
    <path d="M321.4,614.3c-2.3-1.7-6.1-.4-8.6,3s-2.6,7.4-.4,9.1,6.1,0.4,8.6-3S323.7,616,321.4,614.3Z" transform="translate(-267.7 -589.2)" style="fill: #f1740c"/>
    <path d="M286.8,603c-2.8.4-4.6,4-4,8.2s3.4,7.1,6.2,6.7,4.6-4,4-8.2S289.7,602.7,286.8,603Z" transform="translate(-267.7 -589.2)" style="fill: #f1740c"/>
    <path d="M300.3,593.4c-2.9-.2-5.5,3.3-5.9,7.9s1.7,8.5,4.5,8.8,5.5-3.3,5.9-7.9S303.2,593.6,300.3,593.4Z" transform="translate(-267.7 -589.2)" style="fill: #f1740c"/>
    <path d="M316.9,608c-2.3,4-6.1,6.1-8.7,4.7s-2.7-5.8-.4-9.9,6.1-6.1,8.7-4.7S319.2,603.9,316.9,608Z" transform="translate(-267.7 -589.2)" style="fill: #f1740c"/>
    <text transform="translate(163.5 42.3)" style="font-size: 31.1424503326416px;fill: #f1740c;font-family: Hobo Std">Pets</text>
  </g>
</svg>
